<?xml version="1.0" standalone="no"?>
<!DOCTYPE svg PUBLIC "-//W3C//DTD SVG 20010904//EN"
 "http://www.w3.org/TR/2001/REC-SVG-20010904/DTD/svg10.dtd">
<svg version="1.0" xmlns="http://www.w3.org/2000/svg"
 width="355.000000pt" height="355.000000pt" viewBox="0 0 355.000000 355.000000"
 preserveAspectRatio="xMidYMid meet">
<metadata>
Created by potrace 1.14, written by Peter Selinger 2001-2017
</metadata>
<g transform="translate(0.000000,355.000000) scale(0.100000,-0.100000)"
fill="#000000" stroke="none">
<path d="M256 3540 c-16 -5 -54 -10 -85 -11 l-56 -2 3 -1681 c1 -925 4 -1685
6 -1691 2 -7 176 -9 497 -8 272 1 499 2 505 2 8 1 11 114 12 393 l1 392 33 28
c18 15 38 32 45 38 7 5 16 10 22 10 5 0 11 3 13 8 2 4 32 30 68 57 73 56 93
72 122 97 12 10 24 18 27 18 3 0 18 10 33 23 14 12 41 33 58 47 18 14 38 31
46 38 8 7 18 11 23 8 10 -7 88 -143 161 -281 29 -55 56 -102 60 -105 3 -3 24
-39 45 -80 45 -88 82 -158 134 -255 20 -38 69 -131 108 -205 39 -74 83 -157
98 -185 l27 -50 562 2 c308 1 567 2 575 2 12 1 11 4 -1 19 -9 9 -26 37 -40 62
-13 25 -31 56 -39 70 -14 22 -223 375 -269 455 -9 17 -31 54 -49 83 -17 29
-31 57 -31 62 0 6 -3 10 -7 10 -5 0 -13 10 -19 23 -6 12 -47 84 -92 161 -45
76 -82 142 -82 147 0 5 -3 9 -8 9 -4 0 -25 36 -46 80 -24 48 -58 98 -85 125
-45 45 -111 91 -111 78 0 -3 -8 1 -17 9 -20 18 -244 108 -267 108 -29 0 -24
15 6 17 16 1 58 10 91 18 34 9 69 18 77 20 29 6 145 53 190 76 113 58 241 164
323 269 51 64 116 214 141 322 41 179 32 386 -23 566 -43 142 -164 308 -282
387 -24 16 -46 32 -49 35 -14 16 -155 81 -220 103 -72 24 -180 50 -209 50 -8
0 -16 9 -19 19 -4 17 -42 18 -991 17 -542 0 -999 -5 -1015 -9z m1329 -754 c22
-3 51 -7 65 -11 49 -11 121 -26 135 -29 6 -1 15 -4 20 -8 6 -3 32 -9 58 -12
27 -4 57 -16 67 -26 11 -11 27 -16 43 -13 21 4 28 -1 40 -29 27 -59 33 -92 32
-158 -3 -118 -56 -202 -163 -253 -45 -22 -62 -24 -235 -26 l-185 -2 2 23 c4
33 15 67 37 115 28 62 25 88 -14 117 -52 40 -70 34 -147 -42 -37 -38 -83 -75
-101 -82 -33 -14 -44 -21 -74 -48 -8 -7 -16 -10 -16 -5 -1 4 -2 116 -3 248 -1
224 0 240 17 245 23 6 368 3 422 -4z m-444 -1339 c-10 -9 -11 -8 -5 6 3 10 9
15 12 12 3 -3 0 -11 -7 -18z"/>
</g>
</svg>
